<?xml version="1.0" encoding="utf-8"?>
<!-- Generator: Adobe Illustrator 18.1.1, SVG Export Plug-In . SVG Version: 6.00 Build 0)  -->
<!DOCTYPE svg PUBLIC "-//W3C//DTD SVG 1.1//EN" "http://www.w3.org/Graphics/SVG/1.1/DTD/svg11.dtd">
<svg version="1.1" id="Layer_1" xmlns="http://www.w3.org/2000/svg" xmlns:xlink="http://www.w3.org/1999/xlink" x="0px" y="0px"
	 viewBox="398.9 2.5 201.8 295.6" enable-background="new 398.9 2.5 201.8 295.6" xml:space="preserve">
<path fill="#73BE46" d="M550,196.2c-6.6-7.1-14.1-8-22.1-2.1c-10.4-5.9-12.1-6-21.4-1.1c-1.6-9.3-3.4-18.5-4.8-27.6
	c-1.2-8.2-6-12.7-13.9-12.2c-8.4,0.5-14.4,5.7-13.8,14.2c1.3,16.7,4,33.2,6.2,49.7c0.2,1.9,0.4,3.8,0.7,6.1
	c-18.6-11.2-23.7-11.8-31-3.5c-3.5,4-5.7,8.4-1.4,13.1c3.2,3.5,7.1,6.6,11.7,10.8c-14.6,1.5-27.9,2.8-42,4.3
	c-6.6-63.1-13.1-125.9-19.5-189.3c12.6-1.3,24.6-2.4,36.5-3.7c7.5-35.7,20.4-49.8,47.2-52.1c27.9-2.3,39.9,6.9,53.3,41.7
	c7.1-0.8,14.4-1.6,21.7-2.3c7.3-0.7,14.6-1.4,22.6-2.1c6.9,63,13.7,125.7,20.6,189.1c-7,0.7-13.6,1.4-20.8,2.2
	c-0.7-9.8-1.9-19.1-6.5-27.4C567.9,193.5,561.9,191.6,550,196.2L550,196.2z M467.3,12.1c-11.9,10.6-15.2,24.7-17.1,40.1
	c23.8-2.2,47-4.4,70.8-6.6c-1.5-4.2-2.5-7.5-3.9-10.8c-10.4-24.4-28.8-33.4-48.3-23.9C468.3,11.3,467.8,11.7,467.3,12.1L467.3,12.1z
	 M531.5,43.6C529.3,24.3,510,3.6,496.7,6c18.1,16.2,18.1,16.2,28.2,38.5C527.2,44.2,529.3,43.9,531.5,43.6L531.5,43.6z M465.5,9.7
	C451,15.7,437.3,40,440,53.7c2.5-0.4,5.1-0.7,7.8-1.1C447.2,35.7,454.3,22.4,465.5,9.7L465.5,9.7z"/>
<path fill="#C85A8B" d="M567.8,290.1c-18.4,2.6-36.3,5.3-54.7,7.9c-16.7-26.2-37.7-48.7-59.4-70.5c2.1-4.8,5.6-7.1,10.3-6.4
	c6.6,1.1,9.6,7.5,15,10.4c6.8,3.8,4.9,10.3,5.7,16.2c2.6,0,4.9,0,7.7,0c-2.2-15-4.4-29.9-6.6-44.8c-1.5-10.1-3.3-20.2-4.5-30.3
	c-0.6-4.9-0.5-10.6,5.8-11.9c7.1-1.4,7.6,4.4,8.3,9.3c2.4,15.5,4.9,31.1,7.4,46.8c1.8,0,3.4,0,5.2,0c2.3-7.1-2.9-19.2,8.9-19.8
	c9.5-0.5,7.4,10.4,9.4,17.3c1.4,0,2.9,0,4.5,0c1.6-5.9-2.8-16.1,7.1-16.2c10.5-0.1,8.3,11.2,11,18.2c1.7,0,3.5,0,5.7,0
	c0-4.5,0-8.7,0-13.2c6.2-2.6,10.4-0.9,12.9,4.8c6,13.5,6.9,27.7,4.6,42C570,263,567.7,276.1,567.8,290.1L567.8,290.1z"/>
<path fill="#FFFFFF" d="M468.9,10.9c-0.5,0.4-1,0.8-1.5,1.2C467.8,11.7,468.4,11.3,468.9,10.9L468.9,10.9z"/>
</svg>
