<?xml version="1.0" encoding="utf-8"?>
<!-- Generator: Adobe Illustrator 18.1.1, SVG Export Plug-In . SVG Version: 6.00 Build 0)  -->
<!DOCTYPE svg PUBLIC "-//W3C//DTD SVG 1.1//EN" "http://www.w3.org/Graphics/SVG/1.1/DTD/svg11.dtd">
<svg version="1.1" id="Layer_1" xmlns="http://www.w3.org/2000/svg" xmlns:xlink="http://www.w3.org/1999/xlink" x="0px" y="0px"
	 viewBox="354.1 3.7 292.2 291.4" enable-background="new 354.1 3.7 292.2 291.4" xml:space="preserve">
<path fill="#86BE3C" d="M406.6,150.5l-5.7-5.2c-17.5-17.5-22.7-42.2-16.1-64.4c-17.5-3.8-30.3-19.4-30.3-37.9
	c0-21.8,17.5-39.3,38.9-39.3c19.4,0,35.5,14.2,38.4,32.7c21.3-4.7,44.6,1,60.7,17.5l2.4,2.4L466,84.7l-1.9-1.9
	c-9.5-9.5-24.6-9.5-34.1,0c-9.5,9-9.5,24.6,0,33.6l5.7,5.7l28.9,28.4l30.3,30.3L466,209.7l-30.4-30.3L406.6,150.5z"/>
<path fill="#E4B645" d="M438.9,118.8l30.3-30.3l28.9-28.9l5.7-5.7c17.5-17.5,42.2-22.7,64.4-16.6c2.4-19,19-33.6,38.4-33.6
	c21.8,0,39.3,17.5,39.3,39.3c0,19.9-14.7,36-34.1,38.9c6.2,21.8,1,46.4-16.6,63.5l-1.9,2.4l-28.9-28.9l2.4-2.4c9-9.5,9-24.6,0-33.6
	c-9.5-9.5-24.6-9.5-34.1,0l-5.7,5.7L498.1,117l-30.4,30.8L438.9,118.8z"/>
<path fill="#C33734" d="M568.7,263.8c-22.3,7.1-47.4,1.4-64.9-16.1l-1.9-1.9l28.4-28.9l2.4,1.9c9.5,9.5,24.6,9.5,34.1,0
	c9-9,9-24.1,0-33.6l-5.7-5.7l-28.9-28.9l-30.3-29.9l28.4-28.9l30.8,30.3l28.4,28.4l5.7,5.7c16.6,16.6,22.7,39.8,17.5,61.1
	c18.9,2.8,33.6,18.9,33.6,38.8c0,21.3-17.5,38.9-39.3,38.9C588.1,295,572.5,281.8,568.7,263.8z"/>
<path fill="#748EC4" d="M557.3,182.7L527,213.1L498.1,242l-5.7,5.7c-16.6,16.6-39.8,22.3-61.1,17.1c-4.3,17.5-19.4,30.3-38.4,30.3
	c-21.3,0-38.8-17.5-38.8-38.9c0-18.5,12.8-34.1,29.8-38.4c-5.2-21.3,0.5-45,17.1-61.6l2.4-2.4l28.9,28.9l-2.4,2.4
	c-9.5,9.5-9.5,24.6,0,33.6c9.5,9.5,24.6,9.5,34.1,0l5.2-5.7l28.9-28.4l30.8-30.8L557.3,182.7z"/>
</svg>
