<?xml version="1.0" encoding="utf-8"?>
<!-- Generator: Adobe Illustrator 18.1.1, SVG Export Plug-In . SVG Version: 6.00 Build 0)  -->
<!DOCTYPE svg PUBLIC "-//W3C//DTD SVG 1.1//EN" "http://www.w3.org/Graphics/SVG/1.1/DTD/svg11.dtd">
<svg version="1.1" id="Layer_1" xmlns="http://www.w3.org/2000/svg" xmlns:xlink="http://www.w3.org/1999/xlink" x="0px" y="0px"
	 viewBox="461.1 105.5 77.7 88.9" enable-background="new 461.1 105.5 77.7 88.9" xml:space="preserve">
<path fill="#00598D" d="M496.5,105.5c0,0,7.4,9.9,13,12.2c0,0,3.3,1.6,5.8,2.4c0,0,11.2,4.9,17.7,16.3c0,0,7.7,11.7,5.3,25.8
	c0,0-1.7,15.6-16.2,25.4c0,0-11.1,8.3-26.5,6.4c0,0-14.3-1.1-25-12.8c0,0-12.9-13.9-8.8-32.9c0,0,1.7-13.7,16.2-24.1
	c0,0,4.4-2.7,8.1-4.6c0,0,8.4-4.2,9.1-8.4C495.4,111.5,496.5,108.5,496.5,105.5z"/>
<path fill="#0073B9" d="M470.2,132.8c0,0-17.5,17.7-2.9,42.9c0,0,9.9,11.9,44.4-12.4c0,0,23.8-15.6,17.3-31.5c0,0-6.3-8.3-14.8-11.4
	c0,0-8.8-2.6-13-8.6l-4.2-4.7c0,0,0.3,9.4-9.4,12.8C487.6,119.9,475.8,125.2,470.2,132.8z"/>
<path fill="#92C4E3" d="M497,107.2c0,0,1.3,4.7,1.3,5.6c0,0,0.6,2.4-1.3,4.2l-1,1c0,0-0.6,0.4,0.3,1.1c0,0,0.8,0.4,0,1.9
	c0,0-2.9,6-10,10.6c0,0-10.8,8-16.8,8.5c0,0-5.6,0.6,0.4-7.1c0,0,6.8-8.7,16.6-12.3c0,0,4.9-2.8,6.5-4.3
	C493.1,116.3,496.6,114.3,497,107.2z"/>
<path fill="#0073B9" stroke="#0073B9" stroke-miterlimit="10" d="M503.3,193.5c0,0,32-4.3,34.6-38.3
	C537.9,155.2,541,187.6,503.3,193.5z"/>
<path fill="#0073B9" d="M533.5,174c0.1-0.2,0.2-0.4,0.3-0.6C533.7,173.6,533.6,173.8,533.5,174z"/>
<path fill="#0073B9" d="M533,175c0.1-0.1,0.1-0.2,0.2-0.3C533.1,174.8,533,174.9,533,175z"/>
<path fill="#0073B9" d="M532.8,175.4c0.1-0.1,0.1-0.2,0.2-0.3C532.9,175.1,532.8,175.3,532.8,175.4z"/>
<path fill="#0073B9" d="M494.3,114.9c0,0.1-0.1,0.2-0.1,0.2C494.2,115,494.1,114.9,494.3,114.9z"/>
<path fill="#92C4E3" d="M470.3,132.6c0,0.1,0,0.2-0.1,0.2C470.3,132.7,470.3,132.6,470.3,132.6z"/>
<path fill="#0073B9" d="M468.4,135.2c0,0.1-0.1,0.2-0.1,0.3C468.2,135.3,468.2,135.2,468.4,135.2z"/>
<path fill="#0073B9" d="M468.2,135.4c0,0.1-0.1,0.2-0.2,0.2C468.1,135.5,468,135.4,468.2,135.4z"/>
<path fill="#0073B9" d="M531.7,177c0.1-0.1,0.1-0.1,0.1-0.2C531.8,176.9,531.8,177,531.7,177z"/>
<path fill="#0073B9" d="M493.8,115.5c0,0.1-0.1,0.1-0.1,0.2C493.7,115.6,493.7,115.6,493.8,115.5z"/>
<path fill="#92C4E3" d="M470.5,132.4c0,0.1-0.1,0.1-0.2,0.2C470.4,132.5,470.5,132.5,470.5,132.4z"/>
<path fill="#0073B9" d="M532.2,176.2c0.1,0,0.1-0.1,0.1-0.1C532.3,176.1,532.2,176.2,532.2,176.2z"/>
<path fill="#0073B9" d="M531.8,176.8c0,0,0.1-0.1,0.1-0.1C531.9,176.7,531.8,176.7,531.8,176.8z"/>
<path fill="#0073B9" d="M532.1,176.4c0,0,0.1-0.1,0.1-0.1C532.2,176.3,532.1,176.3,532.1,176.4z"/>
<path fill="#FEFEFE" d="M519.5,184.2c0.1,0.1,0.2,0.2,0.2,0.4c0.1,0.2,0.2,0.4,0.2,0.6c0.1,0.2,0,0.4-0.1,0.6
	c-0.2,0.5-0.6,0.8-1.1,1c-0.9,0.5-1.8,1-2.7,1.4c-0.8,0.4-1.6,0.6-2.4,0.8c-0.7,0.2-1.4,0.3-2,0.5c-0.2,0.1-0.5,0.1-0.8,0.1
	c-0.7,0.1-1.4,0.1-2.1,0.1c-0.4,0-0.7,0.1-1.1,0.1c-1.1,0-2.2,0.1-3.3,0.1c-0.8,0-1.5-0.1-2.3-0.2c-1-0.2-1.9-0.4-2.9-0.8
	c-0.6-0.2-1.2-0.5-1.7-0.8c-0.4-0.2-0.7-0.5-1-0.7c-0.5-0.3-0.6-0.7-0.7-1.2c-0.1-0.3-0.1-0.5,0.1-0.8c0.3-0.4,1.2-1.1,1.9-0.8
	c0.1,0,0.2,0.1,0.3,0.1c0.4,0.4,0.8,0.7,1.3,0.9c0.8,0.4,1.6,0.8,2.6,0.9c0.5,0.1,0.9,0.2,1.3,0.3c0.4,0.1,0.9,0.2,1.3,0.2
	c0.5,0,1,0.1,1.6,0.1c0.9,0,1.8,0.1,2.7,0.1c0.7,0,1.4-0.1,2.1-0.2c0.6-0.1,1.2-0.1,1.8-0.3c0.6-0.1,1.2-0.3,1.9-0.4
	c1-0.2,1.8-0.6,2.7-1.1c0.5-0.2,0.9-0.6,1.4-0.8C518.9,184.3,519.1,184.1,519.5,184.2z"/>
<path fill="#FEFEFE" d="M517,180.8c-0.1,0-0.2,0-0.4,0c-0.1-0.2-0.3-0.5-0.5-0.8c-0.1-0.3-0.3-0.6-0.5-0.9c-0.3-0.8-1-1.1-1.7-1.3
	c-0.8-0.2-1.7-0.3-2.6-0.3c-0.5,0.1-1,0.1-1.5,0.3c-0.4,0.1-0.8,0.2-1.1,0.4c-0.5,0.2-0.8,0.4-1.2,0.7c-0.7,0.5-1.3,1.1-1.9,1.7
	c-0.2,0.1-0.5,0.2-0.7,0.4c-0.1-0.1-0.3-0.1-0.5-0.2c-0.5-0.3-0.8-1.1-0.4-1.6c0.5-0.7,1.1-1.2,1.7-1.7c0.6-0.4,1.1-0.8,1.6-1.2
	c0.8-0.5,1.6-0.8,2.6-1c1.1-0.2,2.1-0.2,3.2-0.2c0.9,0.1,1.9,0.2,2.7,0.8c0.3,0.2,0.5,0.5,0.8,0.8c0.5,0.6,0.9,1.2,1.1,1.9
	c0.2,0.5,0.4,1,0,1.6C517.6,180.5,517.3,180.6,517,180.8z"/>
<path fill="#FEFEFE" d="M482.6,178c-0.8-0.5-1.5-1-2.1-1.6c-0.6-0.5-1-1.2-1.3-2c-0.2-0.5-0.5-1.1-0.6-1.7c-0.2-0.6-0.3-1.3-0.3-1.9
	c0-0.3-0.1-0.7-0.1-1c0-0.4,0-0.8,0.1-1.1c0-0.2,0.1-0.4,0.1-0.6c0.1-0.5,0.2-1,0.4-1.4c0.2-0.7,0.4-1.4,0.8-2.1
	c0.4-0.8,0.8-1.5,1.4-2.2c0.5-0.7,1-1.2,1.6-1.8c0.7-0.6,1.5-1.1,2.2-1.6c1-0.6,2-1.1,3-1.5c0.5-0.2,1.1-0.3,1.6-0.4
	c0.6-0.1,1.1-0.2,1.7-0.3c0.3-0.1,0.6-0.1,0.9-0.1c0.6,0,1.2-0.1,1.7-0.1c0.6,0,1.3,0.1,1.9,0.2c0.7,0.1,1.4,0.3,2.1,0.6
	c1,0.4,2,0.9,2.9,1.3c0.6,0.3,1.2,0.7,1.8,1c1.1,0.7,2.2,1.4,3.3,2.1c1.2,0.8,2.4,1.6,3.6,2.4c0.1,0.1,0.2,0.2,0.3,0.2
	c0.5,0.3,1,0.6,1.5,0.9c0.4,0.2,0.8,0.3,1.2,0.5c0.7,0.3,1.4,0.4,2.2,0.3c0.9-0.1,1.7-0.4,2.5-0.8c0.7-0.4,1.3-0.8,2-1.2
	c1.3-0.9,2.7-1.7,4-2.6c0.8-0.5,1.5-1.1,2.3-1.6c1.1-0.7,2.2-1.3,3.4-1.8c0.5-0.2,1-0.3,1.5-0.3c0.7,0,1.3,0.2,2,0.4
	c0.5,0.2,1,0.4,1.5,0.8c0.6,0.6,1.1,1.4,1.4,2.2c0.2,0.6,0.5,1.2,0.5,1.8c0,0.4,0.1,0.7,0.1,1.1c0,0.5,0.1,1.1,0.1,1.6
	c0,0.5-0.1,1-0.1,1.5c0,0.1-0.1,0.1-0.1,0.2c-0.1,0.4-0.1,0.8-0.2,1.2c-0.2,1.2-0.6,2.4-1.1,3.5c-0.1,0.2-0.1,0.4-0.2,0.7
	c-0.1,0.1-0.1,0.3-0.2,0.4c-0.1,0.2-0.2,0.4-0.3,0.6c-0.1,0.2-0.2,0.5-0.3,0.7c-0.1,0.1-0.2,0.2-0.2,0.3l0,0
	c-0.1,0.1-0.1,0.2-0.2,0.3c-0.1,0.2-0.3,0.5-0.4,0.7c-0.1,0.1-0.1,0.1-0.2,0.1l0,0c0,0.1-0.1,0.1-0.1,0.1c-0.1,0.1-0.1,0.2-0.2,0.3
	c-0.1,0.1-0.1,0.1-0.2,0.1l0,0c-0.1,0.1-0.1,0.1-0.1,0.2l0,0c-0.5,0.5-1,0.9-1.5,1.4c-0.5,0.4-1,0.7-1.7,0.8c-0.4,0-0.8,0-1.3,0.1
	c-0.3,0-0.7-0.1-1-0.2c-0.7-0.3-1.3-0.8-1.9-1.3c-1-1-2-2-3-3.1c-0.5-0.5-1-1-1.4-1.4c-0.1-0.1-0.1-0.1-0.1-0.1
	c-0.5-0.4-1-0.9-1.6-1.4c-0.4-0.4-0.8-0.7-1.3-1c-0.6-0.5-1.3-0.8-2-1.1c-0.7-0.3-1.3-0.3-2-0.2c-0.8,0.2-1.6,0.5-2.3,0.8
	c-0.9,0.4-1.7,0.9-2.6,1.4c-0.8,0.5-1.6,0.9-2.3,1.3s-1.5,0.9-2.3,1.4c-0.6,0.4-1.3,0.7-1.9,1.1c-0.7,0.4-1.4,0.8-2.1,1.2
	c-0.9,0.5-1.9,0.9-2.8,1.4c-0.9,0.4-1.7,0.7-2.6,1c-1.2,0.4-2.4,0.6-3.6,0.6c-0.9,0-1.8-0.1-2.7-0.1c-0.6,0-1.1,0-1.7-0.2
	c-0.4-0.1-0.9-0.2-1.3-0.3C483.9,178.7,483.2,178.4,482.6,178z"/>
<path fill="#FEFEFE" d="M497,107.2c0,0,2.5,8.5-1.5,9.7c0,0-3.2,1.7-3.4,2.1c0,0,2.4,0.3,1.3,2.2c0,0-4,8.1-17.2,13.7
	c0,0-10.4,5-5.8-2.4c0,0,5.5-8.1,17.8-12.8C488.2,119.6,497.3,115.6,497,107.2z"/>
</svg>
