<?xml version="1.0" encoding="utf-8"?>
<!-- Generator: Adobe Illustrator 18.1.1, SVG Export Plug-In . SVG Version: 6.00 Build 0)  -->
<!DOCTYPE svg PUBLIC "-//W3C//DTD SVG 1.1//EN" "http://www.w3.org/Graphics/SVG/1.1/DTD/svg11.dtd">
<svg version="1.1" id="Layer_1" xmlns="http://www.w3.org/2000/svg" xmlns:xlink="http://www.w3.org/1999/xlink" x="0px" y="0px"
	 viewBox="351.6 27.5 296.6 242.3" enable-background="new 351.6 27.5 296.6 242.3" xml:space="preserve">
<path fill="#32BFED" d="M378.6,233.4c0-2.7-0.7-4.9-1.9-6.7c-1.4-2-3.4-3-5.9-3s-4.5,1-5.9,3c-1.3,1.8-1.9,4-1.9,6.7
	c0,2.5,0.5,5,2,7c1.4,2,3.5,3,6,3c2.5,0,4.5-1,5.9-3C378,238.3,378.5,235.8,378.6,233.4L378.6,233.4z M390.1,233.3
	c0,5.7-1.8,10.8-5.2,14.7c-3.6,4.1-8.3,6.3-14,6.3c-5.7,0-10.5-2-14-6.3c-3.4-3.8-5.2-8.8-5.2-14.7s1.8-10.8,5.2-14.7
	c3.7-4.1,8.3-6.2,14-6.2c5.7,0,10.5,2,14,6c3.5,4.4,5.2,8.8,5.2,14.9L390.1,233.3z"/>
<path fill="#32BFED" d="M420,233.4c0-2.7-0.7-4.9-1.9-6.7c-1.4-2-3.4-3-5.9-3c-2.5,0-4.5,1-5.9,3c-1.3,1.8-1.9,4-1.9,6.7
	c0,2.5,0.5,5,2,7c1.4,2,3.5,3,6,3c2.5,0,4.5-1,5.9-3c1.1-2.1,1.6-4.6,1.6-7H420z M431.5,233.3c0,5.4-1.5,10.3-4.7,14.2
	c-3.4,4.5-7.6,6.7-12.9,6.7c-3.7,0-6.9-1-9.5-3.2c0,0.5,0,1.5,0,3.6c0.2,2,0,3.5,0,4.7c0,6.8-2,10.3-6.1,10.5c-1.7,0-3-0.7-4.1-1.8
	c-1.1-1.1-1.7-2.5-1.7-4.2v-44.4c0-1.7,0.5-3,1.7-4.2c1.2-1.2,2.4-1.8,4.1-1.8c2.4,0,4,1.5,5.5,3.7c2.4-3,5.6-4.4,9.8-4.4
	c5.2,0,9.5,2,13,6.7c3.5,3.9,4.8,8.4,4.8,14L431.5,233.3z"/>
<path fill="#32BFED" d="M461.7,229.4c0-1.8-0.9-3.4-2.4-4.7c-1.5-1.4-3.2-2.2-5-2.2c-1.8,0-3.4,0.8-5.1,2.2c-1.5,1.4-2.3,3-2.3,4.7
	H461.7z M473.1,232.2c0,1.9-0.5,3.2-1.4,4c-0.9,0.8-2.3,1.2-4.2,1.2h-20.7c0,2,1,4,3,5.1c1.7,1,3.5,1.5,6,1.5c1.9,0,4.1-0.7,6.8-1.8
	c2.5-1.3,4.4-1.8,5-1.8c1.3,0,2.5,0.5,3.5,1.5c0.9,1,1.5,2,1.5,3.5c0,3.2-2.3,5.6-7.1,7.3c-3.6,1.3-7.1,2-10.8,2
	c-6,0-10.8-2-14.5-5.9c-3.7-4-5.5-8.9-5.5-15c0-5.7,1.9-10.6,5.7-14.7c3.9-4.1,8.6-6.1,14.2-6.1c5.2,0,10,2,13,5.7
	C471.3,222.4,473.2,226.9,473.1,232.2L473.1,232.2L473.1,232.2z"/>
<path fill="#32BFED" d="M511.6,247.6c0,1.7-0.5,3-1.7,4.2c-1,1.2-2.4,1.8-4.1,2c-3.9,0-6-3.2-6-9.5c0-1.3,0.2-3.2,0.3-5.7
	c0.2-2.7,0.3-4.6,0.3-5.7c0-6.8-2.2-10.1-6.6-10.1s-6.6,3.4-6.6,10.1c0,1.5,0,3,0,5.5c0.2,2.5,0.5,4.5,0.5,5.7
	c0,6.4-1.9,9.5-5.9,9.5c-1.7,0-3-0.7-4.1-1.8c-1-1.2-1.7-2.5-1.7-4.2v-28.3c0-1.7,0.5-3,1.7-4.2c1-1.2,2.4-1.7,4.1-1.7
	c2.7,0,4.5,1.5,5.5,3.7c1.8-3,5.1-4.4,9.8-4.4c4.4,0,8,1,10.5,3.5c2.5,2.5,4,6,4,10.1L511.6,247.6L511.6,247.6L511.6,247.6
	L511.6,247.6z"/>
<path fill="#32BFED" d="M547.5,246.4c0,2.5-1.7,4.6-5.1,6.2c-2.7,1.3-5.5,1.8-8.6,2c-5.7,0-10.5-2-14-6.3c-3.4-4-5.2-8.8-5.2-14.7
	c0-5.9,1.8-10.8,5.4-14.8c3.6-4.1,8.2-6,13.9-6c3.4,0,6,0.5,8.5,1.4c3.4,1.5,5,3.5,5,6.1c0,1.4-0.4,2.7-1.3,3.5
	c-0.9,1-2,1.7-3.4,1.7c-0.9,0-2.3-0.3-4.1-0.9c-1.8-0.7-3.2-0.9-4.2-0.9c-2.7,0-4.9,1-6.4,2.9c-1.4,1.8-2.2,4-2.2,6.8
	c0,2.5,0.5,5,2,6.5c1.4,2,3.5,3,6,3.2c1.2,0,2.7-0.4,4.6-1c1.9-0.7,3.4-1,4.2-1c1.3,0,2.5,0.5,3.5,1.7
	C547,243.8,547.5,245.3,547.5,246.4L547.5,246.4L547.5,246.4z"/>
<path fill="#32BFED" d="M577.6,233.4c0-2.7-0.7-4.9-1.9-6.7c-1.4-2-3.4-3-5.9-3c-2.5,0-4.5,1-5.9,3c-1.3,1.8-1.9,4-1.9,6.7
	c0,2.5,0.5,5,2,7c1.4,2,3.5,3,6,3c2.5,0,4.5-1,5.9-3c1.2-2.1,2-4.6,2-7H577.6z M589.1,247.8c0,1.7-0.5,3-1.7,4.2
	c-1,1.2-2.4,1.8-4.1,1.8c-2.5,0-4.2-1.3-5.4-3.7c-2.4,2.9-5.6,4.4-9.8,4.4c-5.4,0-9.7-2.2-13-6.7c-3-4.1-4.6-8.8-4.6-14.2
	c0-5.4,1.5-10.3,4.6-14.2c3.4-4.4,7.8-6.7,13-6.7c4.1,0,7.5,1.5,10,4.4c1-2.4,2.8-3.7,5.4-3.7c1.7,0,3,0.5,4,1.8
	c1.2,1,1.5,2.5,1.5,4.2v28.2L589.1,247.8z"/>
<path fill="#32BFED" d="M618.3,218.4c0,2.4-1.2,4.1-3.6,5.1c-2.2,0.8-4.4,1.5-6.6,2.5c-2.4,1.4-3.6,4-3.6,7.7v14.1
	c0,1.7-0.5,3-1.7,4.2c-1,1.2-2.4,1.8-4.1,2c-1.7,0.2-3-0.7-4.1-1.8c-1.1-1.1-1.7-2.5-1.7-4.2v-28.2c0-1.7,0.5-3,1.7-4.2
	c1-1.2,2.4-1.7,4.1-1.7c2.7,0,4.5,1.5,5.5,3.7c2.4-2.9,5.1-4.4,7.9-4.4c1.7,0,3,0.5,4,2C617.8,215.4,618.2,216.9,618.3,218.4
	L618.3,218.4L618.3,218.4z"/>
<path fill="#32BFED" d="M648.2,219c0,2.5-1,4.1-2.9,4.9c-1,0.4-3,0.5-6.1,0.5v23.2c0,1.7-0.5,3-1.7,4.2c-1,1.2-2.4,1.8-4.1,1.8
	c-1.7,0-2.9-0.7-4.1-1.8c-1.2-1.2-1.7-2.5-1.7-4.2v-23.2c-2.3,0-4.1-0.3-5.1-0.9c-1.5-0.8-2.2-2.3-2.2-4.5c0-2.2,0.8-3.6,2.3-4.4
	c1-0.7,2.7-0.9,5.1-0.9v-2.3v-2.5c0-5.7,1.9-8.7,5.7-8.7s5.5,3,5.5,8.7v2.5v2.3c3,0,5,0,6,0.5C647.1,214.9,648.1,216.4,648.2,219
	L648.2,219L648.2,219z"/>
<path fill="#32BFED" d="M516.2,199.7h-1.5v2.8h1.5c0.9,0,1.5-0.2,1.8-0.4c0.4-0.3,0.5-0.7,0.5-1.2c0-0.5-0.2-0.8-0.5-1
	c-0.3,0-0.9,0-1.9-0.2H516.2z M516.5,199c1.2,0,2,0,2.5,0.5c0.5,0.5,1,1,1,1.7c0,0.5-0.2,1-0.5,1.5c-0.4,0.4-0.8,0.7-1.4,0.7
	l1.8,3.7h-1.4l-1.7-3.6h-2v3.6h-1v-8L516.5,199L516.5,199L516.5,199z M522.3,202.9c0-0.8-0.2-1.7-0.5-2.3c-0.3-0.8-0.8-1.4-1.3-2
	c-0.7-0.7-1.3-1-2-1.4c-0.8-0.3-1.5-0.5-2.4-0.5c-0.9,0-1.7,0.2-2.3,0.5c-0.8,0.3-1.4,0.8-1.9,1.5c-0.7,0.7-1,1.3-1.4,2
	c-0.3,0.8-0.5,1.5-0.5,2.3s0.2,1.5,0.5,2.5c0.3,1,1,1.5,1.5,2c0.7,0.5,1.5,1,2,1.3c0.8,0.5,1.5,0.5,2.5,0.5c0.8,0,1.5-0.2,2.3-0.5
	c0.8-0.3,1.4-0.8,2-1.4c0.5-0.7,1-1.3,1.3-1.9c0.2-0.5,0.5-1.5,0.5-2.3L522.3,202.9z M516.2,196.3c0.9,0,2,0,2.5,0.5
	c0.9,0.5,1.5,1,2,1.5c0.7,0.5,1,1.5,1.5,2.2c0.4,1,0.5,1.5,0.5,2.7c0,0.9-0.2,1.8-0.5,2.5c-0.4,0.8-0.8,1.5-1.4,2.2
	c-0.7,0.7-1.4,1.2-2.3,1.5c-0.9,0.4-1.7,0.5-2.5,0.5c-0.9,0-1.8-0.2-2.5-0.5c-0.8-0.4-1.5-0.9-2.2-1.5c-0.7-0.7-1.2-1.4-1.5-2.2
	c-0.4-0.8-0.5-1.7-0.5-2.5s0.2-1.8,0.5-2.5c0.4-0.9,0.9-1.5,1.5-2.3c0.7-0.7,1.3-1.2,2.2-1.5c1-0.3,1.6-0.3,2.6-0.5L516.2,196.3
	L516.2,196.3z"/>
<path fill="#32BFED" d="M420.9,27.5c24.4,25.9,47.3,29.4,137.5,29.6c89.9,0,50.3,20.1-5.1,69.8C571,96.1,631.6,69,532.3,70.5
	C436.9,71.9,431.3,43,420.9,27.5C420.9,27.5,420.9,27.5,420.9,27.5z"/>
<path fill="#32BFED" d="M485,151.4c0,7.6-6.1,13.6-13.5,13.6c-7.6,0-13.7-6.1-13.7-13.6c0-7.6,6.1-13.7,13.7-13.7
	c7.4,0,13.7,6,13.7,13.7C485.2,151.4,485,151.4,485,151.4z"/>
<path fill="#32BFED" d="M547,151.4c0,7.6-6.1,13.6-13.5,13.6c-7.6,0-13.7-6.1-13.7-13.6c0-7.6,6.1-13.7,13.7-13.7
	C540.8,137.7,547,143.6,547,151.4C547,151.4,547,151.4,547,151.4z"/>
<path fill="#32BFED" d="M612.9,213.4c0,0,8.3,0.9,4.5,8.1L612.9,213.4z"/>
</svg>
