<?xml version="1.0" encoding="utf-8"?>
<!-- Generator: Adobe Illustrator 18.1.1, SVG Export Plug-In . SVG Version: 6.00 Build 0)  -->
<!DOCTYPE svg PUBLIC "-//W3C//DTD SVG 1.1//EN" "http://www.w3.org/Graphics/SVG/1.1/DTD/svg11.dtd">
<svg version="1.1" id="Layer_1" xmlns="http://www.w3.org/2000/svg" xmlns:xlink="http://www.w3.org/1999/xlink" x="0px" y="0px"
	 viewBox="354.2 10.2 285.8 285.5" enable-background="new 354.2 10.2 285.8 285.5" xml:space="preserve">
<circle fill="#FFFFFF" cx="497.2" cy="152.7" r="140.1"/>
<path fill="#464442" d="M640,148.7c-0.1,83.1-63.8,147.1-142.9,147c-39.2-0.1-73-14.2-101-41.8c-21.4-21.2-34.6-47-39.8-76.7
	c-4.4-25.3-2-50.2,7-74.2c9.7-25.9,25.7-47.3,47.8-64c25.5-19.1,54.3-29,86.2-28.8c39.1,0.2,72.9,14.1,100.6,41.7
	C625.8,79.7,639.4,113.7,640,148.7z M362.4,139.2c-0.1,0.2-0.1,0.5-0.1,0.8c-0.4,5.5-0.7,11-0.5,16.6c0.1,4.8,0.5,9.5,1.1,14.2
	c1,7.6,2.6,15.1,4.9,22.4c4.5,14.4,11.3,27.6,20,39.8c2.2,3.1,4.6,6,7.1,8.9c4.6,5.1,9.3,10,14.5,14.4c9.1,7.7,18.9,14.2,29.7,19.3
	c17.2,8.2,35.3,12.5,54.3,13.1c4.1,0.1,8.1,0,12.1-0.2c5.4-0.3,10.7-1,16.1-1.9c11.8-2.1,23-5.8,33.8-10.9
	c12.9-6.1,24.5-14.1,34.9-23.9c5.5-5.2,10.5-10.7,15.1-16.7c3.5-4.6,6.7-9.4,9.6-14.4c6-10.3,10.4-21.2,13.5-32.8
	c1.3-5,2.3-10.1,3.2-15.2c0.8-5.2,1.2-10.5,1.4-15.7c0.1-3.9,0-7.7-0.2-11.6c-0.3-5.5-0.9-11-1.9-16.4c-2.5-14-7.1-27.2-13.9-39.7
	c-1.6-3-3.2-5.9-5.2-8.7c-1.4-2.3-3-4.6-4.6-6.8c-7.4-10.3-16.1-19.3-26-27.1c-5.1-4-10.5-7.6-16.1-10.9
	c-7.2-4.2-14.7-7.6-22.5-10.4c-9.6-3.3-19.3-5.6-29.4-6.8c-6.5-0.8-12.9-1.1-19.4-0.9c-6.2,0.2-12.4,0.7-18.5,1.7
	c-12.3,2-24.2,5.7-35.5,11c-6.7,3.2-13.1,6.8-19.2,11c-4.7,3.2-9.1,6.7-13.4,10.4c-1.4,1.2-2.6,2.5-3.9,3.8
	c-6.2,6-11.9,12.5-16.8,19.6c-4.7,6.7-8.8,13.7-12.3,21.2c-5.2,11.3-8.8,23.1-10.8,35.4C362.9,134,362.5,136.6,362.4,139.2z"/>
<path fill="#464442" d="M534.7,36.9c3.4,1.2,6.8,2.4,10.1,3.8c11.2,4.8,21.5,11.1,30.8,18.9c1.1,0.9,2.2,1.8,3.2,2.8
	c0.2,0.2,0.4,0.3,0.5,0.6c-6-0.3-11.2,1.6-15.4,5.9c-4.9,5-6.9,11.1-6.3,18c0.5,5.5,2.6,10.5,5.2,15.3c2,3.6,4.2,7.1,6.4,10.6
	c4,6.8,7.4,13.9,9,21.7c1.1,5.1,1.5,10.3,1.2,15.5c0,0.3,0,0.6,0,0.8c-0.5,6.5-1.8,12.8-3.6,19.1c-1.6,5.5-3.5,10.9-5.5,16.3
	c-1.3,3.5-2.2,7.2-3.3,10.8c-1.2,4-2.3,7.9-3.5,11.9c-1.7,5.7-3.5,11.5-5.2,17.2c-0.1,0.1,0.1,0.4-0.2,0.4s-0.2-0.3-0.3-0.5
	c-2.3-6.9-4.6-13.7-6.9-20.6c-4.3-12.7-8.5-25.4-12.8-38.1c-0.8-2.5-1.8-5-2.6-7.5c-2.7-8.6-5.7-17.2-8.6-25.8c-3-9-6-17.9-9.1-26.9
	c-1-2.9-2-5.9-3-8.9c-0.1-0.2-0.1-0.5-0.2-0.7c-0.1-0.5-0.7-1.2-0.4-1.5s1-0.1,1.6-0.2c4.1-0.3,8.2-0.6,12.2-1.1
	c2.9-0.3,4.9-2.9,4.4-5.8c-0.1-0.6-0.4-1.2-0.6-1.8c-0.9-1.6-2.2-2.4-4-2.4c-3.2,0-6.4,0.4-9.6,0.6c-3.7,0.2-7.3,0.5-10.9,0.6
	c-3.9,0.2-7.9,0.3-11.8,0.3c-6,0.1-11.9-0.2-17.9-0.6c-2.1-0.1-4.3-0.2-6.4-0.3c-3-0.2-6-0.5-9-0.6c-2.2-0.1-3.9,1.2-4.6,3.3
	c-0.9,2.5,0.1,5.1,2.2,6.2c0.4,0.3,0.8,0.4,1.3,0.4c2,0.2,4,0.5,6,0.7c2.4,0.2,4.9,0.5,7.3,0.5c0.4,0,0.4,0.4,0.5,0.7
	c6.2,16.9,12.4,33.9,18.6,50.8c0.2,0.4,0.1,0.8,0,1.2c-0.9,2.8-1.9,5.6-2.8,8.4c-2.8,8.3-5.6,16.6-8.3,24.9
	c-4.6,13.8-9.2,27.6-13.8,41.4c-0.5,1.4-0.9,2.9-1.5,4.5c-0.1-0.4-0.2-0.5-0.3-0.8c-4.4-13-8.8-26-13.1-39.1
	c-3.7-10.9-7.4-21.8-11-32.8c-4.9-14.7-9.9-29.5-14.8-44.2c-1.6-4.8-3.2-9.6-4.9-14.5c-0.2-0.7,0-0.7,0.6-0.8
	c4.6-0.3,9.1-0.5,13.7-1.2c3.5-0.5,5.2-4.7,3.3-7.7c-0.9-1.5-2.3-2.3-4-2.3c-3.6,0.2-7.1,0.4-10.7,0.6c-3.7,0.2-7.4,0.4-11.1,0.6
	c-4.8,0.2-9.6,0.4-14.4,0.3c-1.3,0-2.7-0.1-4-0.1c-0.3,0-0.5-0.1-0.4-0.4c0.3,0,0.4-0.3,0.5-0.5c4.7-7,10.1-13.4,16.1-19.3
	c4.7-4.6,9.8-8.9,15.2-12.7c11.2-7.8,23.3-13.6,36.4-17.3c9.7-2.8,19.5-4.3,29.6-4.6c5.8-0.2,11.5,0.1,17.3,0.7
	c5.4,0.6,10.8,1.6,16.1,2.8C529.4,35.3,532,36.2,534.7,36.9z"/>
<path fill="#464442" d="M499.5,164c0.6,1.7,1.3,3.4,1.9,5.2c4.1,11.2,8.2,22.3,12.2,33.5c2.7,7.4,5.4,14.8,8.1,22.3
	c1.4,4,2.8,8,4.3,12c1.2,3.2,2.3,6.4,3.5,9.6c1.2,3.2,2.3,6.4,3.5,9.6c1.3,3.4,2.5,6.8,3.8,10.2c0.2,0.5,0.9,1.1,0.6,1.6
	c-0.3,0.4-1.1,0.5-1.7,0.7c-7.3,2.5-14.9,4.2-22.6,5.2c-6.6,0.9-13.3,1.2-20,1c-9.8-0.3-19.5-1.8-29-4.5c-1.5-0.4-1.5-0.4-1-1.9
	c5.1-14.9,10.3-29.9,15.4-44.8c5.5-16,11-32,16.5-48.1c1.2-3.6,2.5-7.1,3.7-10.8c0.1-0.3,0.4-0.5,0.3-0.8
	C499.3,164,499.4,164,499.5,164z"/>
<path fill="#464442" d="M386.4,104.6c0,0.2,0,0.3,0,0.5c0,0.1,0,0.1,0.1,0.1c5.3,14.4,10.5,28.7,15.8,43.1c0.1,0.2,0.1,0.3,0.2,0.5
	c2.9,7.9,5.7,15.7,8.6,23.6c2.4,6.5,4.8,13.1,7.1,19.6c6.2,17,12.4,34,18.6,51c1.2,3.3,2.4,6.7,3.6,10c0.9,2.4,1.8,4.9,2.7,7.3
	c0.2,0.5,0.3,1,0.5,1.4c0.1,0.2,0.3,0.4,0.1,0.6s-0.4-0.1-0.6-0.1c-3-1.5-5.9-3.1-8.8-4.9c-7.8-4.7-15-10.3-21.6-16.6
	c-9.4-9.1-17.2-19.3-23.3-30.9c-5.9-11.2-10-23-12.2-35.4c-1-5.6-1.6-11.1-1.8-16.8c-0.2-4.7-0.1-9.5,0.3-14.2c1-12.1,3.6-23.7,8-35
	c0.7-1.7,1.4-3.3,2-5C386.2,103.9,386.1,104.4,386.4,104.6z"/>
<path fill="#464442" d="M604.3,95c0.2,0,0.2,0,0.4,0.2c1.8,3.3,3.4,6.7,4.9,10.1c3.7,8.7,6.3,17.7,7.9,27c0.6,3.5,1,7.1,1.4,10.7
	c-0.2,0.5,0.1,0.9,0.1,1.4c0.5,7.1,0.4,14.1-0.3,21.1c-0.7,6.2-1.8,12.4-3.4,18.5c-1.4,5.2-3.1,10.3-5.2,15.3
	c-0.8,1.9-1.7,3.8-2.6,5.7c-1.9,4-4,7.9-6.4,11.7c-2.3,3.7-4.7,7.2-7.4,10.6c-1.5,2-3.1,3.9-4.8,5.8c-2.8,3.1-5.6,6.2-8.7,9.1
	c-6.4,5.9-13.3,11.1-20.8,15.6c-0.2,0.1-0.4,0.2-0.5,0.3c0,0-0.1,0-0.2,0c0.6-1.6,1.2-3.2,1.7-4.9c4.6-13.2,9.1-26.3,13.7-39.5
	c3.6-10.3,7.1-20.6,10.7-30.9c3.7-10.6,7.3-21.3,11-31.9c1.5-4.2,3.2-8.4,4.5-12.8c2-6.4,3.4-12.9,4.2-19.6
	c0.6-5.2,0.8-10.4,0.6-15.6c-0.1-2-0.3-3.9-0.5-5.9C604.4,96.4,604.5,95.7,604.3,95z"/>
</svg>
